<mxfile host="Electron" modified="2024-02-21T12:29:50.805Z" agent="Mozilla/5.0 (X11; Linux x86_64) AppleWebKit/537.36 (KHTML, like Gecko) draw.io/23.1.5 Chrome/120.0.6099.109 Electron/28.1.0 Safari/537.36" etag="uHMFzjHFdgHyZvVUzKqB" version="23.1.5" type="device">
  <diagram name="Page-1" id="VUhxFbhU-NQ9rYnNWD86">
    <mxGraphModel dx="637" dy="709" grid="1" gridSize="10" guides="1" tooltips="1" connect="1" arrows="1" fold="1" page="1" pageScale="1" pageWidth="850" pageHeight="1100" math="0" shadow="0">
      <root>
        <mxCell id="0" />
        <mxCell id="1" parent="0" />
        <mxCell id="XCqC5g-he1hOLoNZ7id0-1" value="pc_mux" style="rounded=0;whiteSpace=wrap;html=1;" vertex="1" parent="1">
          <mxGeometry x="160" y="320" width="60" height="80" as="geometry" />
        </mxCell>
        <mxCell id="XCqC5g-he1hOLoNZ7id0-2" value="pc_adder" style="whiteSpace=wrap;html=1;aspect=fixed;" vertex="1" parent="1">
          <mxGeometry x="396" y="320" width="80" height="80" as="geometry" />
        </mxCell>
        <mxCell id="XCqC5g-he1hOLoNZ7id0-8" value="" style="endArrow=none;html=1;rounded=0;exitX=1;exitY=0.5;exitDx=0;exitDy=0;entryX=0;entryY=0.5;entryDx=0;entryDy=0;" edge="1" parent="1" source="XCqC5g-he1hOLoNZ7id0-1" target="XCqC5g-he1hOLoNZ7id0-23">
          <mxGeometry width="50" height="50" relative="1" as="geometry">
            <mxPoint x="400" y="660" as="sourcePoint" />
            <mxPoint x="270" y="360" as="targetPoint" />
          </mxGeometry>
        </mxCell>
        <mxCell id="XCqC5g-he1hOLoNZ7id0-13" value="pc" style="edgeLabel;html=1;align=center;verticalAlign=middle;resizable=0;points=[];" vertex="1" connectable="0" parent="XCqC5g-he1hOLoNZ7id0-8">
          <mxGeometry x="-0.4" relative="1" as="geometry">
            <mxPoint x="5" y="-10" as="offset" />
          </mxGeometry>
        </mxCell>
        <mxCell id="XCqC5g-he1hOLoNZ7id0-26" value="pc_next" style="edgeLabel;html=1;align=center;verticalAlign=middle;resizable=0;points=[];" vertex="1" connectable="0" parent="XCqC5g-he1hOLoNZ7id0-8">
          <mxGeometry x="-0.2" y="8" relative="1" as="geometry">
            <mxPoint x="8" y="-2" as="offset" />
          </mxGeometry>
        </mxCell>
        <mxCell id="XCqC5g-he1hOLoNZ7id0-9" value="" style="endArrow=none;html=1;rounded=0;entryX=1;entryY=0.5;entryDx=0;entryDy=0;exitX=0;exitY=0.25;exitDx=0;exitDy=0;" edge="1" parent="1" source="XCqC5g-he1hOLoNZ7id0-1" target="XCqC5g-he1hOLoNZ7id0-2">
          <mxGeometry width="50" height="50" relative="1" as="geometry">
            <mxPoint x="120" y="280" as="sourcePoint" />
            <mxPoint x="450" y="610" as="targetPoint" />
            <Array as="points">
              <mxPoint x="120" y="340" />
              <mxPoint x="120" y="240" />
              <mxPoint x="400" y="240" />
              <mxPoint x="520" y="240" />
              <mxPoint x="520" y="360" />
            </Array>
          </mxGeometry>
        </mxCell>
        <mxCell id="XCqC5g-he1hOLoNZ7id0-12" value="pc_plus_4" style="edgeLabel;html=1;align=center;verticalAlign=middle;resizable=0;points=[];" vertex="1" connectable="0" parent="XCqC5g-he1hOLoNZ7id0-9">
          <mxGeometry x="-0.0207" y="1" relative="1" as="geometry">
            <mxPoint y="-9" as="offset" />
          </mxGeometry>
        </mxCell>
        <mxCell id="XCqC5g-he1hOLoNZ7id0-11" value="pc_select" style="endArrow=none;html=1;rounded=0;exitX=0.5;exitY=0;exitDx=0;exitDy=0;" edge="1" parent="1" source="XCqC5g-he1hOLoNZ7id0-1">
          <mxGeometry x="1" y="10" width="50" height="50" relative="1" as="geometry">
            <mxPoint x="400" y="660" as="sourcePoint" />
            <mxPoint x="190" y="290" as="targetPoint" />
            <mxPoint x="10" y="-10" as="offset" />
          </mxGeometry>
        </mxCell>
        <mxCell id="XCqC5g-he1hOLoNZ7id0-15" value="" style="endArrow=none;html=1;rounded=0;" edge="1" parent="1" source="XCqC5g-he1hOLoNZ7id0-17">
          <mxGeometry width="50" height="50" relative="1" as="geometry">
            <mxPoint x="370" y="500" as="sourcePoint" />
            <mxPoint x="360" y="360" as="targetPoint" />
            <Array as="points">
              <mxPoint x="360" y="550" />
            </Array>
          </mxGeometry>
        </mxCell>
        <mxCell id="XCqC5g-he1hOLoNZ7id0-16" style="edgeStyle=orthogonalEdgeStyle;rounded=0;orthogonalLoop=1;jettySize=auto;html=1;exitX=0.5;exitY=1;exitDx=0;exitDy=0;" edge="1" parent="1">
          <mxGeometry relative="1" as="geometry">
            <mxPoint x="436" y="560" as="sourcePoint" />
            <mxPoint x="436" y="560" as="targetPoint" />
          </mxGeometry>
        </mxCell>
        <mxCell id="XCqC5g-he1hOLoNZ7id0-17" value="imem" style="rounded=0;whiteSpace=wrap;html=1;" vertex="1" parent="1">
          <mxGeometry x="396" y="480" width="80" height="200" as="geometry" />
        </mxCell>
        <mxCell id="XCqC5g-he1hOLoNZ7id0-19" value="" style="endArrow=none;html=1;rounded=0;entryX=0;entryY=0.75;entryDx=0;entryDy=0;" edge="1" parent="1" target="XCqC5g-he1hOLoNZ7id0-1">
          <mxGeometry width="50" height="50" relative="1" as="geometry">
            <mxPoint x="40" y="380" as="sourcePoint" />
            <mxPoint x="450" y="610" as="targetPoint" />
          </mxGeometry>
        </mxCell>
        <mxCell id="XCqC5g-he1hOLoNZ7id0-20" value="pc_branch" style="edgeLabel;html=1;align=center;verticalAlign=middle;resizable=0;points=[];" vertex="1" connectable="0" parent="XCqC5g-he1hOLoNZ7id0-19">
          <mxGeometry x="-0.15" relative="1" as="geometry">
            <mxPoint x="9" y="-10" as="offset" />
          </mxGeometry>
        </mxCell>
        <mxCell id="XCqC5g-he1hOLoNZ7id0-23" value="pc_reg" style="rounded=0;whiteSpace=wrap;html=1;" vertex="1" parent="1">
          <mxGeometry x="276" y="320" width="54" height="80" as="geometry" />
        </mxCell>
        <mxCell id="XCqC5g-he1hOLoNZ7id0-24" value="" style="endArrow=none;html=1;rounded=0;exitX=1;exitY=0.5;exitDx=0;exitDy=0;entryX=0;entryY=0.5;entryDx=0;entryDy=0;" edge="1" parent="1" source="XCqC5g-he1hOLoNZ7id0-23" target="XCqC5g-he1hOLoNZ7id0-2">
          <mxGeometry width="50" height="50" relative="1" as="geometry">
            <mxPoint x="346" y="410" as="sourcePoint" />
            <mxPoint x="396" y="360" as="targetPoint" />
          </mxGeometry>
        </mxCell>
        <mxCell id="XCqC5g-he1hOLoNZ7id0-25" value="pc" style="edgeLabel;html=1;align=center;verticalAlign=middle;resizable=0;points=[];" vertex="1" connectable="0" parent="XCqC5g-he1hOLoNZ7id0-24">
          <mxGeometry x="-0.5152" y="1" relative="1" as="geometry">
            <mxPoint x="14" y="-9" as="offset" />
          </mxGeometry>
        </mxCell>
      </root>
    </mxGraphModel>
  </diagram>
</mxfile>
